# xmcd
#
# Track frame offsets:
#	150
#	13980
#	28152
#	42137
#	54079
#	67030
#	81079
#	100001
#	114457
#	127620
#	145488
#	157147
#	172049
#	184314
#	195488
#	210173
#	221146
#	234304
#	244140
#	256089
#
# Disc length: 3602 seconds
#
# Revision: 1
# Processed by: cddbd v1.5.2PL0 Copyright (c) Steve Scherf et al.
# Submitted via: audiograbber 1.83.01
#
DISCID=140e1014
DTITLE=Rooster Quantrell - King Of Western Swing
DYEAR=1998
DGENRE=Country
TTITLE0=Where Were You
TTITLE1=Don´t Lay Your Troubles On Me
TTITLE2=I´ll Cry All The Way To Th´bank
TTITLE3=Shoulder To Cry On
TTITLE4=I´ll Forgive You
TTITLE5=Super Heroes
TTITLE6=I Can´t See Me Without You
TTITLE7=Let´s Go Dancing
TTITLE8=This Must Be That Someday
TTITLE9=Don´t Leave Me Here
TTITLE10=King Bee
TTITLE11=I´m Moving Out, Moving Up. Moving On
TTITLE12=Rose Of San Antone
TTITLE13=Any Palce In Texas
TTITLE14=Dreaming Once More
TTITLE15=Down South
TTITLE16=Don´t You Think It´s Time
TTITLE17=Heads You Win
TTITLE18=Heads You Win
TTITLE19=Old Man Blues
EXTD=
EXTT0=
EXTT1=
EXTT2=
EXTT3=
EXTT4=
EXTT5=
EXTT6=
EXTT7=
EXTT8=
EXTT9=
EXTT10=
EXTT11=
EXTT12=
EXTT13=
EXTT14=
EXTT15=
EXTT16=
EXTT17=
EXTT18=
EXTT19=
PLAYORDER=
